<?xml version="1.0" encoding="utf-8"?>
<!-- Generator: Adobe Illustrator 21.0.0, SVG Export Plug-In . SVG Version: 6.00 Build 0)  -->
<svg version="1.1" id="图层_1" xmlns="http://www.w3.org/2000/svg" xmlns:xlink="http://www.w3.org/1999/xlink" x="0px" y="0px"
	 viewBox="0 0 10.2 6" style="enable-background:new 0 0 10.2 6;" xml:space="preserve">
<style type="text/css">
	.st0{fill:#1890FF;}
</style>
<title>down</title>
<desc>Created with Sketch.</desc>
<g id="Page-1">
	<g id="反馈意见" transform="translate(-1016.000000, -1015.000000)">
		<g id="法规对比结果-有冲突备份" transform="translate(342.000000, 864.000000)">
			<g id="观点1" transform="translate(73.000000, 142.000000)">
				<g id="收起" transform="translate(571.000000, 1.000000)">
					<path id="down" class="st0" d="M30.2,13.4c-0.2-0.1-0.2-0.3-0.1-0.5c0,0,0,0,0,0l4.5-4.2c0.1-0.1,0.2-0.1,0.4-0.1
						c0.1,0,0.3,0,0.4,0.1l0,0l4.5,4.2c0,0,0,0,0,0c0.1,0.2,0.1,0.4-0.1,0.5c-0.2,0.2-0.5,0.1-0.7,0l0,0L35,9.5l-4.2,3.9
						C30.6,13.5,30.4,13.6,30.2,13.4z"/>
				</g>
			</g>
		</g>
	</g>
</g>
</svg>
