<?xml version="1.0" encoding="utf-8"?>
<!-- Generator: Adobe Illustrator 21.0.0, SVG Export Plug-In . SVG Version: 6.00 Build 0)  -->
<svg version="1.1" id="图层_1" xmlns="http://www.w3.org/2000/svg" xmlns:xlink="http://www.w3.org/1999/xlink" x="0px" y="0px"
	 viewBox="0 0 12.2 12.2" style="enable-background:new 0 0 12.2 12.2;" xml:space="preserve">
<style type="text/css">
	.st0{fill:#666666;}
</style>
<g id="Page-1">
	<g id="反馈意见" transform="translate(-696.000000, -1654.000000)">
		<g id="法规对比结果-有冲突备份" transform="translate(342.000000, 864.000000)">
			<g id="弹窗框架">
				<g id="下载" transform="translate(73.000000, 781.000000)">
					<g id="编组-12" transform="translate(281.000000, 6.000000)">
						<g id="Group-53-Copy-3" transform="translate(0.000000, 3.000000)">
							<g id="编组-9">
								<g id="download" transform="translate(0.875000, 0.875000)">
									<path id="Shape" class="st0" d="M4.9,9C5,9.1,5.1,9.1,5.3,9.1s0.2,0,0.3-0.1l2.1-2.1c0.2-0.2,0.2-0.5,0-0.7
										C7.6,6.1,7.5,6,7.4,6S7.2,6,7.1,6.1L5.7,7.5v-7.9c0-0.3-0.2-0.5-0.5-0.5S4.8-0.7,4.8-0.4v7.9L3.5,6.2C3.3,6,3,6,2.8,6.2
										s-0.2,0.5,0,0.7L4.9,9z"/>
									<path id="Shape_1_" class="st0" d="M10.9,7c-0.3,0-0.5,0.2-0.5,0.5v2.7c0,0.2-0.1,0.3-0.3,0.3H0.4c-0.2,0-0.3-0.1-0.3-0.3
										V7.5C0.1,7.2-0.1,7-0.4,7s-0.5,0.2-0.5,0.5v3c0,0.5,0.4,0.8,0.8,0.8h10.6c0.5,0,0.8-0.4,0.8-0.8v-3C11.4,7.2,11.2,7,10.9,7
										z"/>
								</g>
							</g>
						</g>
					</g>
				</g>
			</g>
		</g>
	</g>
</g>
</svg>
